PathFileType	4	(X/Y/Z)	33_1_48_p1_0-226.trc
DataRate	CameraRate	NumFrames	NumMarkers	Units	OrigDataRate	OrigDataStartFrame	OrigNumFrames
59.0	59.0	6	27	m	59.0	113	227
Frame#	Time	RHip			RKnee			RAnkle			RBigToe			RSmallToe			RHeel			LHip			LKnee			LAnkle			LBigToe			LSmallToe			LHeel			Neck			Head			Nose			RShoulder			RElbow			RWrist			RThumb			RIndex			RPinky			LShoulder			LElbow			LWrist			LThumb			LIndex			LPinky			
		X1	Y1	Z1	X2	Y2	Z2	X3	Y3	Z3	X4	Y4	Z4	X5	Y5	Z5	X6	Y6	Z6	X7	Y7	Z7	X8	Y8	Z8	X9	Y9	Z9	X10	Y10	Z10	X11	Y11	Z11	X12	Y12	Z12	X13	Y13	Z13	X14	Y14	Z14	X15	Y15	Z15	X16	Y16	Z16	X17	Y17	Z17	X18	Y18	Z18	X19	Y19	Z19	X20	Y20	Z20	X21	Y21	Z21	X22	Y22	Z22	X23	Y23	Z23	X24	Y24	Z24	X25	Y25	Z25	X26	Y26	Z26	X27	Y27	Z27	
113	1.9152542372881356	0.3110513471830918	0.24490496292101852	0.16274045296599005	0.27124156473664435	0.44821058517020385	0.5625635033180392	0.24857527079734698	0.7187601575590626	0.9451312750595344	0.25207859677915984	0.5603058800851717	1.008825728718163	0.3137498046846177	0.6129399193524625	1.005037542466001	0.22435827444811024	0.8401724699845022	1.0045455178890774	0.11453894845767643	0.2850830780572599	0.14962531477471694	0.09330914680704397	0.42358790946094144	0.5670391916374996	0.08190506539826259	0.7242156091561415	0.9638890984055021	0.10904943056872554	0.5634309796434209	1.0122014214765755	0.06358924546343457	0.598642114110536	1.010554452631512	0.07367422631822335	0.8067556029661883	0.9944170866288295	0.20224421546998664	-0.02944433820612453	-0.28485316909884495	0.19006141384430372	-0.19963913541473335	-0.4691699753761627	0.1833626019754408	-0.1860937770033322	-0.3078186010934283	0.35126929522774425	-0.03363533316551082	-0.23825491399012405	0.3430233420610423	0.1326261551822624	-0.06431395004504808	0.15026135430314555	0.04411674461194363	-0.05608887943196139	0.032383843094827426	0.03918843930725549	-0.21022349648012276	0.042081143300054746	0.04285113238300886	-0.22373640982903	0.040507260340986714	0.10134639736658982	-0.169479141954258	0.07667118888033428	-0.024275347311894423	-0.2811424407691078	0.0762856432170385	0.050772707406120346	-0.12053332435167331	0.25707735069742743	0.0077741188009538015	-0.017705123952340793	0.3360104398536443	-0.022898159271195276	-0.07993877414802526	0.3513909620949466	-0.001011157395642697	-0.05488067127736984	0.3658078417873581	0.040197415283040744	-0.034469027722603095
114	1.9322033898305084	0.30780805106962167	0.24308118505195092	0.16331229602945066	0.27159481682627296	0.4488763597220917	0.5663504641509252	0.24860567964183078	0.7187225997485666	0.9451640555659091	0.25214177838411006	0.5606595307746526	1.0129063647748675	0.3136144393216738	0.6127856254498256	1.0051900759161998	0.2248315185767013	0.8406640485439691	1.0090562780528942	0.11022950492028506	0.28421417037951874	0.1535831717708694	0.09340513484104683	0.42342852546457205	0.5668789062524889	0.0830017363498731	0.7284559501824807	0.9722362072819958	0.11033959410293696	0.5681375552600666	1.0186045854958226	0.06334992555111317	0.5982991019772762	1.011100568697238	0.06802852029726869	0.8015046725115827	0.9992835293516948	0.20247878880008888	-0.030655778093044483	-0.28803758960670756	0.19007268444321582	-0.19947383812028663	-0.4693077115333607	0.18821618362486134	-0.19587736976342002	-0.3038866633482942	0.3510662474812717	-0.036086551963661284	-0.24409642037155074	0.3422831511207132	0.13035697358944692	-0.0657457120323461	0.14240056980476526	0.03846666950635174	-0.0635982348153755	0.02950388511628038	0.0339703891761159	-0.2082686976349573	0.032498913157428866	0.02697985328131293	-0.21645147006793722	0.041208133147991974	0.09897251315396444	-0.17545264736290878	0.07678356095424303	-0.024530844697935116	-0.2811119568079504	0.07648208255765	0.05230859254219912	-0.11517802195333257	0.25685763451813864	0.008812896578097858	-0.018398393212171328	0.3365915220027172	-0.02644550209436968	-0.0814300648831473	0.35508742029028456	-0.01533480533578375	-0.05669230444821254	0.3721207594208036	0.054137711687756614	-0.03835911296331591
115	1.9491525423728813	0.30254820250112474	0.2542208356348138	0.1574538137239107	0.2716554463476602	0.44903323396970346	0.5663766996579623	0.2485763919369526	0.7187182094569606	0.9450697929083252	0.2521301352144958	0.5600106899782318	1.0089033964097085	0.31390934923978586	0.6127294090726266	1.0047966411750784	0.22437022876888374	0.8404787949372944	1.0048100598401384	0.1109048763904323	0.28344179437046213	0.15011747106938467	0.09989791350440733	0.41184055685258736	0.5711257787525886	0.08265502021886975	0.7278190645771994	0.9683762463433544	0.11211245335726094	0.5659536472848018	1.0127908630096816	0.06356330107468817	0.5980736260621368	1.0109083901499416	0.06927752360861279	0.7992794809466734	0.993814828611446	0.20256789792396385	-0.030785186807573375	-0.28794337024555217	0.19239264106323808	-0.18959902829165365	-0.4742870408447544	0.19307968070206946	-0.20570737256508492	-0.29991607194170433	0.3514718152029647	-0.03436129157422971	-0.2405258510201861	0.34423374039686083	0.1418904324749429	-0.06927253816855171	0.15294133469789112	0.07612203442746472	-0.0728100798874461	0.02688989530439422	0.01829646524469547	-0.20470917136076103	0.031014475929431337	0.019653645267402996	-0.21465100675794307	0.04357985208584223	0.07323485412171178	-0.17096861182608478	0.08218924685205437	-0.03559355545891805	-0.27712125086732753	0.0763532040579518	0.055018010921114954	-0.11250161923658751	0.2567467994968339	0.009844273786552424	-0.019365980889684803	0.33673551628025356	-0.028830804647633657	-0.08048872208512294	0.3577043111460368	-0.005922161817266423	-0.05743286387329827	0.3748690293059758	0.06571307514813168	-0.044769524500581526
116	1.9661016949152543	0.30680423983772365	0.2463660728173315	0.170310431003377	0.27105100416492167	0.4517516871334733	0.5739762531625594	0.24969697221952947	0.7164225764851267	0.9410971613957182	0.2523898269382879	0.5599481775180117	1.0131308992652392	0.3137651970442876	0.6123123712910109	1.005449384998634	0.23061783502933783	0.8220616000512239	1.0065556337016321	0.10970599524521595	0.28479277680722165	0.15369017517197414	0.09906673002574182	0.41360835011553065	0.5746030001370671	0.08488118867966483	0.7437560624049682	0.9693778592468234	0.10928964694385289	0.5632164415920132	1.0120176360316304	0.07224213895387607	0.5947361308932223	1.0098588388076204	0.06941119427127046	0.7997376077169286	0.993947847823458	0.2073914560047943	-0.04122710782880218	-0.2840717697890839	0.19751531207900744	-0.19983154986017293	-0.4726839309655827	0.19810086523867315	-0.21566323817937244	-0.29602864968618237	0.3517069985156027	-0.035715721294810654	-0.24348529997609036	0.3463813214915404	0.12747634621815937	-0.06556727513219542	0.15112810124418333	0.06961431854573252	-0.08627786715805935	0.02410047066126215	0.008038778864869728	-0.20069581903708025	0.03042665285434169	0.020710073534003063	-0.21050235813645418	0.032015255605793325	0.07590109493114698	-0.17046091804647476	0.08220568674650787	-0.035708433458390275	-0.2771048341736693	0.0767021207305183	0.05290421291804234	-0.1131736420608924	0.2610035676962955	-0.002851147999045408	-0.019776749765501048	0.34496614054771296	-0.040615858954039845	-0.0808704465661367	0.35851648837242933	-0.004812085592774324	-0.05797333077273133	0.382798270178334	0.05845749668493997	-0.04325568657505179
117	1.9830508474576272	0.3072295643872968	0.24410809660602467	0.16318260157789136	0.2726598388447904	0.45304035346845917	0.5743115573315977	0.2497723622824189	0.7163794515019452	0.9410190916700658	0.2527334045446522	0.5605058386742701	1.0126724340543474	0.31396766839870754	0.6126091668774238	1.0050439232839476	0.23037370971016516	0.8221045879960186	1.0056845549716287	0.11003483534357142	0.2824205832532284	0.14676881188195437	0.10002041717676954	0.4117082723537183	0.5709589379311178	0.08487674019604785	0.7439174851031789	0.9693552045061392	0.10318543443061645	0.5563021471582869	1.0093066085581934	0.06838435922710309	0.5905151621681699	1.0083600596695583	0.07383476044308142	0.8073951958810158	0.9944292756818458	0.2108482470572447	-0.03958628444930744	-0.2849353815596834	0.19773671415146457	-0.2011858718068373	-0.475491792094979	0.20652492739314335	-0.22475387183355486	-0.2956455895569223	0.35367946239716735	-0.026753664507636336	-0.24780777730636538	0.3525917850096377	0.14073640316575675	-0.06964953300199414	0.16952056201520868	0.07838019305762647	-0.07820141608852506	0.027044533829275973	0.015646629625630442	-0.20843191030836072	0.041600532105034	0.04086868168435793	-0.22370191867457212	0.04007508132610765	0.0677668206032091	-0.16786629976269488	0.08229796050932706	-0.03558443652824005	-0.2771417297717957	0.07669639406313768	0.056339463416490564	-0.10753525699221338	0.26132405740478065	-0.00396945297810162	-0.02276828605836633	0.3472662890393555	-0.016512701181001815	-0.08805560631730912	0.3611654210334187	0.007268873777434357	-0.058075468128311485	0.38596486116225137	0.06972440753792616	-0.046302813495309465
118	2.0	0.30184824464541055	0.2549969802631537	0.15729845461563172	0.2716885261375741	0.4492055753708568	0.5665044044112316	0.249688717840966	0.7165065834764007	0.9410291857540264	0.2527079461521746	0.5602127896458643	1.0127609545936516	0.31409394016788095	0.6121055270904514	1.004889622946633	0.22926002807617288	0.8178542145961496	0.9967959784923185	0.1097756626857752	0.28060812903800203	0.14302199297428883	0.1000138585657064	0.4117113986447723	0.5708852892694745	0.08485566739306706	0.7440087669178593	0.9694115779773235	0.1106783919609622	0.5381579183629966	1.0036098114366183	0.06989033264632893	0.5882875129892338	1.0045111432969975	0.073670272332045	0.8072209215123114	0.9943057480178582	0.21101983450743295	-0.03958334124364898	-0.2849698817835381	0.206053892388	-0.20950122157471987	-0.4715908160835127	0.20888543616706115	-0.21610678092571664	-0.2995287854726789	0.35399336713694535	-0.025325061747338198	-0.24419423418991268	0.34577461618809463	0.13193069959205914	-0.07504471780298415	0.17688807028983575	0.06748824959837821	-0.07520099543433405	0.026210940234884076	0.014335674999578834	-0.20603578926788818	0.03600625224167492	0.035819984180244464	-0.21237475232769806	0.039963267608683635	0.0699394652694302	-0.16257885807830658	0.08773820120243701	-0.04681776031897685	-0.27338538715096344	0.07683592330867738	0.0520307832972728	-0.11596414128729103	0.25971508338939064	-0.005537592356933557	-0.024933682935113603	0.35265462620067767	-0.015049014221868315	-0.09276607022646798	0.3695664061501608	0.009327439611430463	-0.06491206339807562	0.38441773588065387	0.07490240802865461	-0.048971938404475314
